<mxfile host="app.diagrams.net" agent="Mozilla/5.0 (Macintosh; Intel Mac OS X 10_15_7) AppleWebKit/537.36 (KHTML, like Gecko) Chrome/132.0.0.0 Safari/537.36" version="26.0.10">
  <diagram name="Page-1" id="YAiH8xaDrNcEKyo47Klx">
    <mxGraphModel dx="786" dy="438" grid="1" gridSize="10" guides="1" tooltips="1" connect="1" arrows="1" fold="1" page="1" pageScale="1" pageWidth="827" pageHeight="1169" math="0" shadow="0">
      <root>
        <mxCell id="0" />
        <mxCell id="1" parent="0" />
        <mxCell id="xLjRIKFggBFyaXyNJNWd-1" value="&lt;b&gt;Kirjautumissivu:&lt;/b&gt;&lt;div&gt;&lt;span style=&quot;background-color: transparent; color: light-dark(rgb(0, 0, 0), rgb(255, 255, 255));&quot;&gt;-Käyttäjä kirjautuu&lt;/span&gt;&lt;/div&gt;&lt;div&gt;-Unohtunut salasana&lt;/div&gt;&lt;div&gt;-Uuden käyttäjän rekisteröinti&lt;/div&gt;" style="rounded=1;whiteSpace=wrap;html=1;" parent="1" vertex="1">
          <mxGeometry x="340" y="160" width="130" height="140" as="geometry" />
        </mxCell>
        <mxCell id="llDZMpXvOJ95gdZLknlC-21" value="" style="edgeStyle=orthogonalEdgeStyle;rounded=0;orthogonalLoop=1;jettySize=auto;html=1;" edge="1" parent="1" source="xLjRIKFggBFyaXyNJNWd-2" target="llDZMpXvOJ95gdZLknlC-17">
          <mxGeometry relative="1" as="geometry" />
        </mxCell>
        <mxCell id="xLjRIKFggBFyaXyNJNWd-2" value="&lt;b&gt;Etusivu&lt;/b&gt;:&lt;div&gt;-Teoksen haku&lt;/div&gt;&lt;div&gt;-Lista teoksista&lt;/div&gt;&lt;div&gt;&lt;br&gt;&lt;/div&gt;" style="rounded=1;whiteSpace=wrap;html=1;" parent="1" vertex="1">
          <mxGeometry x="160" y="160" width="130" height="140" as="geometry" />
        </mxCell>
        <mxCell id="llDZMpXvOJ95gdZLknlC-10" value="" style="edgeStyle=orthogonalEdgeStyle;rounded=0;orthogonalLoop=1;jettySize=auto;html=1;" edge="1" parent="1" source="xLjRIKFggBFyaXyNJNWd-5" target="llDZMpXvOJ95gdZLknlC-9">
          <mxGeometry relative="1" as="geometry" />
        </mxCell>
        <mxCell id="xLjRIKFggBFyaXyNJNWd-5" value="Postikulujen laskenta" style="rhombus;whiteSpace=wrap;html=1;" parent="1" vertex="1">
          <mxGeometry x="102.5" y="600" width="105" height="100" as="geometry" />
        </mxCell>
        <mxCell id="llDZMpXvOJ95gdZLknlC-7" value="" style="edgeStyle=orthogonalEdgeStyle;rounded=0;orthogonalLoop=1;jettySize=auto;html=1;" edge="1" parent="1" source="xLjRIKFggBFyaXyNJNWd-4" target="xLjRIKFggBFyaXyNJNWd-5">
          <mxGeometry relative="1" as="geometry" />
        </mxCell>
        <mxCell id="llDZMpXvOJ95gdZLknlC-20" value="" style="edgeStyle=orthogonalEdgeStyle;rounded=0;orthogonalLoop=1;jettySize=auto;html=1;" edge="1" parent="1" source="xLjRIKFggBFyaXyNJNWd-4" target="llDZMpXvOJ95gdZLknlC-17">
          <mxGeometry relative="1" as="geometry" />
        </mxCell>
        <mxCell id="xLjRIKFggBFyaXyNJNWd-4" value="&lt;b&gt;Tilauslomake/&lt;/b&gt;&lt;div&gt;&lt;b&gt;Ostoskori:&lt;/b&gt;&lt;/div&gt;&lt;div&gt;-Toimitustietojen lisäys&lt;/div&gt;&lt;div&gt;-Tilauksen vahvistus&lt;/div&gt;" style="rounded=1;whiteSpace=wrap;html=1;" parent="1" vertex="1">
          <mxGeometry x="80" y="370" width="150" height="180" as="geometry" />
        </mxCell>
        <mxCell id="llDZMpXvOJ95gdZLknlC-14" value="" style="edgeStyle=orthogonalEdgeStyle;rounded=0;orthogonalLoop=1;jettySize=auto;html=1;" edge="1" parent="1" source="xLjRIKFggBFyaXyNJNWd-3" target="llDZMpXvOJ95gdZLknlC-11">
          <mxGeometry relative="1" as="geometry" />
        </mxCell>
        <mxCell id="llDZMpXvOJ95gdZLknlC-19" value="" style="edgeStyle=orthogonalEdgeStyle;rounded=0;orthogonalLoop=1;jettySize=auto;html=1;" edge="1" parent="1" source="xLjRIKFggBFyaXyNJNWd-3" target="llDZMpXvOJ95gdZLknlC-17">
          <mxGeometry relative="1" as="geometry" />
        </mxCell>
        <mxCell id="xLjRIKFggBFyaXyNJNWd-3" value="&lt;b&gt;Teoksen lisäyslomake:&lt;/b&gt;&lt;div&gt;tietokantaan D1 &amp;amp; D2&lt;/div&gt;" style="rounded=1;whiteSpace=wrap;html=1;" parent="1" vertex="1">
          <mxGeometry x="390" y="360" width="130" height="80" as="geometry" />
        </mxCell>
        <mxCell id="llDZMpXvOJ95gdZLknlC-4" value="" style="endArrow=classic;startArrow=classic;html=1;rounded=0;entryX=0;entryY=0.5;entryDx=0;entryDy=0;exitX=1;exitY=0.5;exitDx=0;exitDy=0;" edge="1" parent="1" source="xLjRIKFggBFyaXyNJNWd-2" target="xLjRIKFggBFyaXyNJNWd-1">
          <mxGeometry width="50" height="50" relative="1" as="geometry">
            <mxPoint x="490" y="340" as="sourcePoint" />
            <mxPoint x="540" y="290" as="targetPoint" />
          </mxGeometry>
        </mxCell>
        <mxCell id="llDZMpXvOJ95gdZLknlC-5" value="" style="endArrow=classic;startArrow=classic;html=1;rounded=0;entryX=0.669;entryY=1.007;entryDx=0;entryDy=0;entryPerimeter=0;exitX=0.5;exitY=0;exitDx=0;exitDy=0;" edge="1" parent="1" source="xLjRIKFggBFyaXyNJNWd-3" target="xLjRIKFggBFyaXyNJNWd-2">
          <mxGeometry width="50" height="50" relative="1" as="geometry">
            <mxPoint x="300" y="370" as="sourcePoint" />
            <mxPoint x="350" y="320" as="targetPoint" />
          </mxGeometry>
        </mxCell>
        <mxCell id="llDZMpXvOJ95gdZLknlC-6" value="" style="endArrow=classic;startArrow=classic;html=1;rounded=0;entryX=0.308;entryY=1.021;entryDx=0;entryDy=0;entryPerimeter=0;exitX=0.592;exitY=-0.025;exitDx=0;exitDy=0;exitPerimeter=0;" edge="1" parent="1" source="xLjRIKFggBFyaXyNJNWd-4" target="xLjRIKFggBFyaXyNJNWd-2">
          <mxGeometry width="50" height="50" relative="1" as="geometry">
            <mxPoint x="300" y="370" as="sourcePoint" />
            <mxPoint x="350" y="320" as="targetPoint" />
          </mxGeometry>
        </mxCell>
        <mxCell id="llDZMpXvOJ95gdZLknlC-9" value="&lt;b&gt;Tilaus vahvistettu/Virhe&lt;/b&gt;" style="rounded=1;whiteSpace=wrap;html=1;" vertex="1" parent="1">
          <mxGeometry x="80" y="740" width="150" height="50" as="geometry" />
        </mxCell>
        <mxCell id="llDZMpXvOJ95gdZLknlC-16" value="" style="edgeStyle=orthogonalEdgeStyle;rounded=0;orthogonalLoop=1;jettySize=auto;html=1;" edge="1" parent="1" source="llDZMpXvOJ95gdZLknlC-11">
          <mxGeometry relative="1" as="geometry">
            <mxPoint x="455" y="640" as="targetPoint" />
          </mxGeometry>
        </mxCell>
        <mxCell id="llDZMpXvOJ95gdZLknlC-11" value="Tarkastus&lt;div&gt;onko teos kokonaan&lt;/div&gt;&lt;div&gt;uusi&lt;/div&gt;" style="rhombus;whiteSpace=wrap;html=1;" vertex="1" parent="1">
          <mxGeometry x="402.5" y="490" width="105" height="100" as="geometry" />
        </mxCell>
        <mxCell id="llDZMpXvOJ95gdZLknlC-15" value="&lt;b&gt;Teos lisätty/Virhe&lt;/b&gt;" style="rounded=1;whiteSpace=wrap;html=1;" vertex="1" parent="1">
          <mxGeometry x="380" y="640" width="150" height="50" as="geometry" />
        </mxCell>
        <mxCell id="llDZMpXvOJ95gdZLknlC-17" value="Uloskirjaus" style="rhombus;whiteSpace=wrap;html=1;" vertex="1" parent="1">
          <mxGeometry x="260" y="360" width="105" height="100" as="geometry" />
        </mxCell>
      </root>
    </mxGraphModel>
  </diagram>
</mxfile>
